<svg id="Layer_1" data-name="Layer 1" xmlns="http://www.w3.org/2000/svg" viewBox="0 0 1628 1235.4"><defs><style>.cls-1{fill:#fff;}.cls-2,.cls-3,.cls-4,.cls-5,.cls-6{fill:none;stroke-miterlimit:10;}.cls-2,.cls-3,.cls-4,.cls-6{stroke:#fff;}.cls-3{stroke-width:8px;}.cls-4{stroke-width:7px;}.cls-5{stroke:#19a951;}.cls-6{stroke-width:6px;}.cls-7{fill:#19a951;}</style></defs><title>Logo</title><path class="cls-1" d="M1267.48,737.53a17.5,17.5,0,0,0,8.25-2.89l84.5-62.25H1403c5.29,0-2.75,5.25-2.75,5.25s-104,72.71-107.75,75.5c-5.12,3.84-1.25,6.5-1.25,6.5s52.34,37,69,48.5a48.81,48.81,0,0,1,21.5,39v374h33v-557H1120.28v557h33v-374a48.81,48.81,0,0,1,21.5-39c16.66-11.51,69-48.5,69-48.5s3.88-2.66-1.25-6.5c-3.72-2.79-107.75-75.5-107.75-75.5s-8-5.25-2.75-5.25h42.75l84.5,62.25a17.5,17.5,0,0,0,8.25,2.89" transform="translate(164.27 -32.74)"/><path class="cls-2" d="M1267.5,769.64h0Z" transform="translate(164.27 -32.74)"/><path class="cls-3" d="M1355.23,1221.14v-365s-1.5-16.5-19.5-31.5-62.24-54.31-68.18-55c-5.94.68-50.22,40-68.18,55s-19.5,31.5-19.5,31.5v365" transform="translate(164.27 -32.74)"/><path class="cls-1" d="M42.48,737.53a17.5,17.5,0,0,0,8.25-2.89l84.5-62.25H178c5.29,0-2.75,5.25-2.75,5.25s-104,72.71-107.75,75.5c-5.12,3.84-1.25,6.5-1.25,6.5s52.34,37,69,48.5a48.81,48.81,0,0,1,21.5,39v374h33v-557H-104.72v557h33v-374a48.81,48.81,0,0,1,21.5-39c16.66-11.51,69-48.5,69-48.5s3.88-2.66-1.25-6.5c-3.72-2.79-107.75-75.5-107.75-75.5s-8-5.25-2.75-5.25h42.75l84.5,62.25a17.5,17.5,0,0,0,8.25,2.89" transform="translate(164.27 -32.74)"/><path class="cls-2" d="M42.5,769.64h0Z" transform="translate(164.27 -32.74)"/><path class="cls-3" d="M130.23,1221.14v-365s-1.5-16.5-19.5-31.5-62.24-54.31-68.18-55c-5.94.68-50.22,40-68.18,55s-19.5,31.5-19.5,31.5v365" transform="translate(164.27 -32.74)"/><polyline class="cls-3" points="814 573.4 1168 573.4 1168 1231.4 1226 1231.4 1226 573.4 1624 573.4 1624 1188.4"/><polyline class="cls-3" points="814 573.4 460 573.4 460 1231.4 402 1231.4 402 573.4 4 573.4 4 1188.4"/><polyline class="cls-3" points="402 585.06 402 499.4 814 499.4 1226 499.4 1226 592.02"/><path class="cls-1" d="M1003.73,1194.79l-30.18,16.5v-390s-6.82-68.67-82.82-172.67l74-42.5h39Z" transform="translate(164.27 -32.74)"/><path class="cls-1" d="M949.73,1198.14l-27.5,13.15-3-369.65s-2.17-22.5-13.17-32.83S801.4,706.47,801.4,706.47s-2.67-5.33,2.33-8.67l5-3.33,51.33-30.33s6.33-4.67,9.33,0l3,4.67,64.33,114.67s12.33,23,13,48.33S949.73,1198.14,949.73,1198.14Z" transform="translate(164.27 -32.74)"/><path class="cls-1" d="M875.36,982.81h21V853.47s.83-16.33-18.17-37.33l-19-21-77.5-81.5s-4.5-6-14.5,0-26.5,17-26.5,17-7,3.5,0,8l7,4.5,111.92,84.25a38.66,38.66,0,0,1,13.08,28.25C872.94,878.14,875.36,982.81,875.36,982.81Z" transform="translate(164.27 -32.74)"/><path class="cls-1" d="M850.4,925.14H828.73V872.47s1.17-15.42-21.33-28c-19.81-11.08-19.67-11.33-19.67-11.33l-100-60.67s-7-4.17-.67-8.5l6.33-4.33,15.5-10.17s2.08-1.83,9.19,4c3.79,3.09,7.15,5.77,7.73,6.29L834.4,841s14.24,10.79,14.67,27.83C849.46,884.65,850.4,925.14,850.4,925.14Z" transform="translate(164.27 -32.74)"/><path class="cls-1" d="M298.59,1194.79l30.18,16.5v-390s6.82-68.67,82.82-172.67l-74-42.5h-39Z" transform="translate(164.27 -32.74)"/><path class="cls-1" d="M352.59,1198.14l27.5,13.15,3-369.65s2.17-22.5,13.17-32.83S500.93,706.47,500.93,706.47s2.67-5.33-2.33-8.67l-5-3.33-51.33-30.33s-6.33-4.67-9.33,0l-3,4.67L365.59,783.47s-12.33,23-13,48.33S352.59,1198.14,352.59,1198.14Z" transform="translate(164.27 -32.74)"/><path class="cls-1" d="M427,982.81h-21V853.47s-.83-16.33,18.17-37.33l19-21,77.5-81.5s4.5-6,14.5,0,26.5,17,26.5,17,7,3.5,0,8l-7,4.5L442.68,827.39a38.66,38.66,0,0,0-13.08,28.25C429.39,878.14,427,982.81,427,982.81Z" transform="translate(164.27 -32.74)"/><path class="cls-1" d="M451.93,925.14h21.67V872.47s-1.17-15.42,21.33-28c19.81-11.08,19.67-11.33,19.67-11.33l100-60.67s7-4.17.67-8.5l-6.33-4.33-15.5-10.17s-2.08-1.83-9.19,4c-3.79,3.09-7.15,5.77-7.73,6.29L467.93,841s-14.24,10.79-14.67,27.83C452.86,884.65,451.93,925.14,451.93,925.14Z" transform="translate(164.27 -32.74)"/><path class="cls-1" d="M881.48,606.14,871.35,613l-88.6,58.92a10,10,0,0,1-13.86-2.79l-12.5-18.79a10,10,0,0,1,2.79-13.86l49.56-30.34Z" transform="translate(164.27 -32.74)"/><path class="cls-4" d="M899.73,1221.14V1054.81s.75-12.92-9-12.92H847.48v-56s1-5.25-4.25-5.25h-41V885.39s-2.75-16.5-15.75-24.75l-13-8.25s-112.25-66-122.5-66-122.5,66-122.5,66l-13,8.25c-13,8.25-15.75,24.75-15.75,24.75v95.25h-41c-5.25,0-4.25,5.25-4.25,5.25v56H411.23c-9.75,0-9,12.92-9,12.92v166.33" transform="translate(164.27 -32.74)"/><rect class="cls-1" x="783.18" y="831.88" width="67.32" height="37.53"/><path class="cls-1" d="M707.57,711.57l-20.79-18.82a3.7,3.7,0,0,1,.23-5.69l34.58-26.47A3.23,3.23,0,0,1,726,661l22.3,25.14a2.79,2.79,0,0,1-.63,4.23L712.48,712A4.1,4.1,0,0,1,707.57,711.57Z" transform="translate(164.27 -32.74)"/><path class="cls-1" d="M422,606.14,432.13,613l88.6,58.92a10,10,0,0,0,13.86-2.79l12.5-18.79a10,10,0,0,0-2.79-13.86l-49.56-30.34Z" transform="translate(164.27 -32.74)"/><path class="cls-1" d="M595.9,711.57l20.79-18.82a3.7,3.7,0,0,0-.23-5.69l-34.58-26.47a3.23,3.23,0,0,0-4.38.42l-22.3,25.14a2.79,2.79,0,0,0,.63,4.23L591,712A4.1,4.1,0,0,0,595.9,711.57Z" transform="translate(164.27 -32.74)"/><path class="cls-1" d="M677.13,730.38,653.88,749a2.77,2.77,0,0,1-3.39.06l-23.1-17.2a2.77,2.77,0,0,1-.17-4.31L650.73,707a2.77,2.77,0,0,1,3.61,0l22.84,19.17A2.77,2.77,0,0,1,677.13,730.38Z" transform="translate(164.27 -32.74)"/><path class="cls-1" d="M638.87,606.14l-28,24.51a4.58,4.58,0,0,0,.28,7.12l38.19,28.45a4.58,4.58,0,0,0,5.6-.1l38.45-30.73a4.58,4.58,0,0,0,.09-7.09L667,606.14Z" transform="translate(164.27 -32.74)"/><polygon class="cls-1" points="994.33 89.23 994.33 143.23 922.67 110.56 922.67 55.56 994.33 89.23"/><polygon class="cls-1" points="642.83 89.23 642.83 143.23 714.5 110.56 714.5 55.56 642.83 89.23"/><path class="cls-5" d="M-6.94,606.14" transform="translate(164.27 -32.74)"/><path class="cls-1" d="M440.49,264.86l5.89,82.86-97.92,88-10.2-110.28,102.23-60.62m14.12-27L325.4,314.51a7.37,7.37,0,0,0-3.58,7L335.47,469,459.9,357.09a8.26,8.26,0,0,0,2.72-6.73l-8-112.47Z" transform="translate(164.27 -32.74)"/><path class="cls-6" d="M420.54,339.19l-2.06-40.55L361,331.08a3.27,3.27,0,0,0-1.59,3.11L361,381.14l58.31-39A3.67,3.67,0,0,0,420.54,339.19Z" transform="translate(164.27 -32.74)"/><path class="cls-1" d="M870.94,264.86l102.23,60.62L963,435.76l-97.92-88,5.89-82.86m-14.12-27-8,112.47a8.26,8.26,0,0,0,2.72,6.73L976,469,989.6,321.52a7.37,7.37,0,0,0-3.58-7L856.82,237.89Z" transform="translate(164.27 -32.74)"/><path class="cls-6" d="M890.89,339.19,893,298.64l57.44,32.44a3.27,3.27,0,0,1,1.59,3.11l-1.58,46.94-58.31-39A3.67,3.67,0,0,1,890.89,339.19Z" transform="translate(164.27 -32.74)"/><polygon class="cls-1" points="1285.57 281.46 1242.81 245 1243.48 227.12 1286.24 251.12 1285.57 281.46"/><polygon class="cls-1" points="352.27 281.46 395.02 245 394.35 227.12 351.6 251.12 352.27 281.46"/><path class="cls-1" d="M685.59,1137.28s1.08,11.93,5.64,11.93,5.21-11.93,5.21-11.93-.87-8,5.21-8,6.29,3,6.51,6.51,6.73,34.72,0,34.94-7.16-5.64-7.16-5.64-1.08-6.08-6.51-6.08-6.08,5.42-6.08,5.42-.65,7.38-6.51,7.38-8.36,2.6-7.33-33.63c0,0,0-7.38,4.72-7.38S685.59,1137.28,685.59,1137.28Z" transform="translate(164.27 -32.74)"/><path class="cls-1" d="M755.16,1126.71s1.75,11.85,6.3,11.6S766,1126.1,766,1126.1s-1.32-8,4.75-8.31,6.45,2.68,6.87,6.13,8.67,34.28,2,34.88-7.47-5.23-7.47-5.23-1.43-6-6.84-5.7-5.76,5.76-5.76,5.76-.23,7.4-6.08,7.73-8.2,3.07-9.21-33.17c0,0-.46-7.36,4.3-7.63S755.16,1126.71,755.16,1126.71Z" transform="translate(164.27 -32.74)"/><path class="cls-1" d="M817.29,1119s2.36,11.75,6.89,11.26,3.89-12.43,3.89-12.43-1.73-7.89,4.31-8.54,6.58,2.34,7.17,5.77,10.43,33.79,3.76,34.73-7.73-4.84-7.73-4.84-1.73-5.92-7.13-5.34-5.46,6-5.46,6,.15,7.4-5.68,8-8,3.49-10.91-32.65c0,0-.84-7.33,3.9-7.84S817.29,1119,817.29,1119Z" transform="translate(164.27 -32.74)"/><path class="cls-1" d="M697.26,1207.7s1.2,13.18,6.23,13.18,5.75-13.18,5.75-13.18-1-8.86,5.75-8.86,6.95,3.35,7.19,7.19,7.43,38.33,0,38.57-7.91-6.23-7.91-6.23-1.2-6.71-7.19-6.71-6.71,6-6.71,6-.72,8.15-7.19,8.15-9.23,2.87-8.09-37.13c0,0-.05-8.15,5.22-8.15S697.26,1207.7,697.26,1207.7Z" transform="translate(164.27 -32.74)"/><path class="cls-1" d="M774.07,1196s1.94,13.09,7,12.81,5-13.48,5-13.48-1.46-8.8,5.24-9.17,7.13,3,7.58,6.77,9.57,37.85,2.17,38.51-8.24-5.77-8.24-5.77-1.57-6.63-7.55-6.29-6.36,6.36-6.36,6.36-.26,8.17-6.72,8.54-9.06,3.39-10.17-36.62c0,0-.51-8.13,4.75-8.43S774.07,1196,774.07,1196Z" transform="translate(164.27 -32.74)"/><path class="cls-1" d="M842.67,1187.55s2.61,13,7.61,12.43,4.3-13.72,4.3-13.72-1.91-8.71,4.76-9.43,7.27,2.59,7.92,6.37,11.51,37.31,4.15,38.35-8.53-5.34-8.53-5.34-1.91-6.54-7.87-5.9-6,6.68-6,6.68.16,8.18-6.27,8.87-8.87,3.85-12-36c0,0-.93-8.09,4.31-8.66S842.67,1187.55,842.67,1187.55Z" transform="translate(164.27 -32.74)"/><path class="cls-1" d="M685.61,1075.38s.85,9.4,4.44,9.4,4.1-9.4,4.1-9.4-.68-6.32,4.1-6.32,5,2.39,5.13,5.13,5.3,27.34,0,27.51-5.64-4.44-5.64-4.44-.85-4.78-5.13-4.78-4.78,4.27-4.78,4.27-.51,5.81-5.13,5.81-6.59,2.05-5.77-26.48c0,0,0-5.81,3.72-5.81S685.61,1075.38,685.61,1075.38Z" transform="translate(164.27 -32.74)"/><path class="cls-1" d="M743.39,1067.06s1.38,9.33,5,9.13,3.57-9.61,3.57-9.61-1-6.27,3.74-6.54,5.08,2.11,5.41,4.83,6.83,27,1.55,27.46-5.88-4.12-5.88-4.12-1.12-4.73-5.39-4.49-4.54,4.53-4.54,4.53-.18,5.83-4.79,6.09-6.46,2.42-7.25-26.12c0,0-.37-5.8,3.39-6S743.39,1067.06,743.39,1067.06Z" transform="translate(164.27 -32.74)"/><path class="cls-1" d="M801.77,1059.14s1.86,9.25,5.43,8.86,3.06-9.78,3.06-9.78-1.36-6.21,3.4-6.73,5.18,1.84,5.65,4.54,8.21,26.61,3,27.35-6.08-3.81-6.08-3.81-1.36-4.66-5.61-4.2-4.3,4.76-4.3,4.76.12,5.83-4.47,6.33-6.33,2.75-8.59-25.71c0,0-.66-5.77,3.07-6.18S801.77,1059.14,801.77,1059.14Z" transform="translate(164.27 -32.74)"/><path class="cls-1" d="M679.15,1015.83s.68,7.43,3.51,7.43,3.24-7.43,3.24-7.43-.54-5,3.24-5,3.92,1.89,4.06,4.06,4.19,21.63,0,21.76-4.46-3.51-4.46-3.51-.68-3.78-4.06-3.78a3.82,3.82,0,0,0-3.78,3.38s-.41,4.6-4.06,4.6-5.21,1.62-4.57-21c0,0,0-4.6,2.94-4.6S679.15,1015.83,679.15,1015.83Z" transform="translate(164.27 -32.74)"/><path class="cls-1" d="M734.61,1007.75s1.09,7.38,3.93,7.22,2.82-7.61,2.82-7.61-.82-5,3-5.18,4,1.67,4.28,3.82,5.4,21.36,1.22,21.73-4.65-3.26-4.65-3.26-.89-3.74-4.26-3.55a3.82,3.82,0,0,0-3.59,3.59s-.15,4.61-3.79,4.82-5.11,1.91-5.74-20.66c0,0-.29-4.59,2.68-4.75S734.61,1007.75,734.61,1007.75Z" transform="translate(164.27 -32.74)"/><path class="cls-1" d="M781.8,999.23s1.47,7.32,4.29,7,2.42-7.74,2.42-7.74-1.08-4.91,2.69-5.32,4.1,1.46,4.47,3.59,6.5,21.05,2.34,21.64-4.81-3-4.81-3-1.08-3.69-4.44-3.33a3.82,3.82,0,0,0-3.4,3.77s.09,4.61-3.54,5-5,2.17-6.79-20.34c0,0-.53-4.57,2.43-4.89S781.8,999.23,781.8,999.23Z" transform="translate(164.27 -32.74)"/><path class="cls-1" d="M672.15,968.48s.56,6.21,2.93,6.21,2.71-6.21,2.71-6.21-.45-4.18,2.71-4.18,3.27,1.58,3.39,3.39,3.5,18.06,0,18.17a3.31,3.31,0,0,1-3.72-2.93s-.56-3.16-3.39-3.16a3.19,3.19,0,0,0-3.16,2.82s-.34,3.84-3.39,3.84-4.35,1.35-3.81-17.49c0,0,0-3.84,2.46-3.84S672.15,968.48,672.15,968.48Z" transform="translate(164.27 -32.74)"/><path class="cls-1" d="M718.45,961.73s.91,6.17,3.28,6,2.35-6.35,2.35-6.35-.69-4.14,2.47-4.32,3.36,1.39,3.57,3.19,4.51,17.83,1,18.14a3.31,3.31,0,0,1-3.88-2.72s-.74-3.12-3.56-3a3.19,3.19,0,0,0-3,3s-.12,3.85-3.16,4-4.27,1.6-4.79-17.25c0,0-.24-3.83,2.24-4S718.45,961.73,718.45,961.73Z" transform="translate(164.27 -32.74)"/><path class="cls-1" d="M757.85,954.62s1.23,6.11,3.59,5.85,2-6.46,2-6.46-.9-4.1,2.24-4.44,3.42,1.22,3.73,3,5.42,17.57,2,18.06a3.31,3.31,0,0,1-4-2.52s-.9-3.08-3.71-2.78a3.19,3.19,0,0,0-2.84,3.15s.08,3.85-3,4.18-4.18,1.81-5.67-17c0,0-.44-3.81,2-4.08S757.85,954.62,757.85,954.62Z" transform="translate(164.27 -32.74)"/><path class="cls-1" d="M615.46,1137.28s-1.08,11.93-5.64,11.93-5.21-11.93-5.21-11.93.87-8-5.21-8-6.29,3-6.51,6.51-6.73,34.72,0,34.94,7.16-5.64,7.16-5.64,1.08-6.08,6.51-6.08,6.08,5.42,6.08,5.42.65,7.38,6.51,7.38,8.36,2.6,7.33-33.63c0,0,0-7.38-4.72-7.38S615.46,1137.28,615.46,1137.28Z" transform="translate(164.27 -32.74)"/><path class="cls-1" d="M545.89,1126.71s-1.75,11.85-6.3,11.6-4.53-12.21-4.53-12.21,1.32-8-4.75-8.31-6.45,2.68-6.87,6.13-8.67,34.28-2,34.88,7.47-5.23,7.47-5.23,1.43-6,6.84-5.7,5.76,5.76,5.76,5.76.23,7.4,6.08,7.73,8.2,3.07,9.21-33.17c0,0,.46-7.36-4.3-7.63S545.89,1126.71,545.89,1126.71Z" transform="translate(164.27 -32.74)"/><path class="cls-1" d="M483.76,1119s-2.36,11.75-6.89,11.26-3.89-12.43-3.89-12.43,1.73-7.89-4.31-8.54-6.58,2.34-7.17,5.77-10.43,33.79-3.76,34.73,7.73-4.84,7.73-4.84,1.73-5.92,7.13-5.34,5.46,6,5.46,6-.15,7.4,5.68,8,8,3.49,10.91-32.65c0,0,.84-7.33-3.9-7.84S483.76,1119,483.76,1119Z" transform="translate(164.27 -32.74)"/><path class="cls-1" d="M603.79,1207.7s-1.2,13.18-6.23,13.18-5.75-13.18-5.75-13.18,1-8.86-5.75-8.86-6.95,3.35-7.19,7.19-7.43,38.33,0,38.57,7.91-6.23,7.91-6.23,1.2-6.71,7.19-6.71,6.71,6,6.71,6,.72,8.15,7.19,8.15,9.23,2.87,8.09-37.13c0,0,.05-8.15-5.22-8.15S603.79,1207.7,603.79,1207.7Z" transform="translate(164.27 -32.74)"/><path class="cls-1" d="M527,1196s-1.94,13.09-7,12.81-5-13.48-5-13.48,1.46-8.8-5.24-9.17-7.13,3-7.58,6.77-9.57,37.85-2.17,38.51,8.24-5.77,8.24-5.77,1.57-6.63,7.55-6.29,6.36,6.36,6.36,6.36.26,8.17,6.72,8.54,9.06,3.39,10.17-36.62c0,0,.51-8.13-4.75-8.43S527,1196,527,1196Z" transform="translate(164.27 -32.74)"/><path class="cls-1" d="M458.38,1187.55s-2.61,13-7.61,12.43-4.3-13.72-4.3-13.72,1.91-8.71-4.76-9.43-7.27,2.59-7.92,6.37-11.51,37.31-4.15,38.35,8.53-5.34,8.53-5.34,1.91-6.54,7.87-5.9,6,6.68,6,6.68-.16,8.18,6.27,8.87,8.87,3.85,12-36c0,0,.93-8.09-4.31-8.66S458.38,1187.55,458.38,1187.55Z" transform="translate(164.27 -32.74)"/><path class="cls-1" d="M615.44,1075.38s-.85,9.4-4.44,9.4-4.1-9.4-4.1-9.4.68-6.32-4.1-6.32-5,2.39-5.13,5.13-5.3,27.34,0,27.51,5.64-4.44,5.64-4.44.85-4.78,5.13-4.78,4.78,4.27,4.78,4.27.51,5.81,5.13,5.81,6.59,2.05,5.77-26.48c0,0,0-5.81-3.72-5.81S615.44,1075.38,615.44,1075.38Z" transform="translate(164.27 -32.74)"/><path class="cls-1" d="M557.66,1067.06s-1.38,9.33-5,9.13-3.57-9.61-3.57-9.61,1-6.27-3.74-6.54-5.08,2.11-5.41,4.83-6.83,27-1.55,27.46,5.88-4.12,5.88-4.12,1.12-4.73,5.39-4.49,4.54,4.53,4.54,4.53.18,5.83,4.79,6.09,6.46,2.42,7.25-26.12c0,0,.37-5.8-3.39-6S557.66,1067.06,557.66,1067.06Z" transform="translate(164.27 -32.74)"/><path class="cls-1" d="M499.28,1059.14s-1.86,9.25-5.43,8.86-3.06-9.78-3.06-9.78,1.36-6.21-3.4-6.73-5.18,1.84-5.65,4.54-8.21,26.61-3,27.35,6.08-3.81,6.08-3.81,1.36-4.66,5.61-4.2,4.3,4.76,4.3,4.76-.12,5.83,4.47,6.33,6.33,2.75,8.59-25.71c0,0,.66-5.77-3.07-6.18S499.28,1059.14,499.28,1059.14Z" transform="translate(164.27 -32.74)"/><path class="cls-1" d="M621.9,1015.83s-.68,7.43-3.51,7.43-3.24-7.43-3.24-7.43.54-5-3.24-5-3.92,1.89-4.06,4.06-4.19,21.63,0,21.76,4.46-3.51,4.46-3.51.68-3.78,4.06-3.78a3.82,3.82,0,0,1,3.78,3.38s.41,4.6,4.06,4.6,5.21,1.62,4.57-21c0,0,0-4.6-2.94-4.6S621.9,1015.83,621.9,1015.83Z" transform="translate(164.27 -32.74)"/><path class="cls-1" d="M566.44,1007.75s-1.09,7.38-3.93,7.22-2.82-7.61-2.82-7.61.82-5-3-5.18-4,1.67-4.28,3.82-5.4,21.36-1.22,21.73,4.65-3.26,4.65-3.26.89-3.74,4.26-3.55a3.82,3.82,0,0,1,3.59,3.59s.15,4.61,3.79,4.82,5.11,1.91,5.74-20.66c0,0,.29-4.59-2.68-4.75S566.44,1007.75,566.44,1007.75Z" transform="translate(164.27 -32.74)"/><path class="cls-1" d="M519.26,999.23s-1.47,7.32-4.29,7-2.42-7.74-2.42-7.74,1.08-4.91-2.69-5.32-4.1,1.46-4.47,3.59-6.5,21.05-2.34,21.64,4.81-3,4.81-3,1.08-3.69,4.44-3.33a3.82,3.82,0,0,1,3.4,3.77s-.09,4.61,3.54,5,5,2.17,6.79-20.34c0,0,.53-4.57-2.43-4.89S519.26,999.23,519.26,999.23Z" transform="translate(164.27 -32.74)"/><path class="cls-1" d="M628.9,968.48s-.56,6.21-2.93,6.21-2.71-6.21-2.71-6.21.45-4.18-2.71-4.18-3.27,1.58-3.39,3.39-3.5,18.06,0,18.17a3.31,3.31,0,0,0,3.72-2.93s.56-3.16,3.39-3.16a3.19,3.19,0,0,1,3.16,2.82s.34,3.84,3.39,3.84,4.35,1.35,3.81-17.49c0,0,0-3.84-2.46-3.84S628.9,968.48,628.9,968.48Z" transform="translate(164.27 -32.74)"/><path class="cls-1" d="M582.6,961.73s-.91,6.17-3.28,6-2.35-6.35-2.35-6.35.69-4.14-2.47-4.32-3.36,1.39-3.57,3.19-4.51,17.83-1,18.14a3.31,3.31,0,0,0,3.88-2.72s.74-3.12,3.56-3a3.19,3.19,0,0,1,3,3s.12,3.85,3.16,4,4.27,1.6,4.79-17.25c0,0,.24-3.83-2.24-4S582.6,961.73,582.6,961.73Z" transform="translate(164.27 -32.74)"/><path class="cls-1" d="M543.2,954.62s-1.23,6.11-3.59,5.85-2-6.46-2-6.46.9-4.1-2.24-4.44-3.42,1.22-3.73,3-5.42,17.57-2,18.06a3.31,3.31,0,0,0,4-2.52s.9-3.08,3.71-2.78a3.19,3.19,0,0,1,2.84,3.15s-.08,3.85,3,4.18,4.18,1.81,5.67-17c0,0,.44-3.81-2-4.08S543.2,954.62,543.2,954.62Z" transform="translate(164.27 -32.74)"/><polygon class="cls-1" points="616.95 102.3 447.62 182.97 447.62 240.3 616.95 156.3 616.95 102.3"/><polygon class="cls-1" points="1017.41 100.47 1017.41 154.47 1186.74 238.47 1186.74 181.14 1017.41 100.47"/><path class="cls-1" d="M652.8,42.74l374.81,181.49,38,15.17c38,15.17,130,66.7,130,66.7C1312.32,387.51,1316,488.81,1316,488.81V601.16H1067.29l-.17-69H232.9L232.73,601h-2.25l-237.41-.33V488.48S-14,401.85,110,306.1c0,0,91.91-51.54,130-66.7l38-15.17L652.8,42.74m0-10-3.92,1.9L274.35,216l-37.74,15c-38.15,15.21-127.25,65.1-131,67.21l-.58.32-.52.4c-28.88,22.3-53.17,46-72.19,70.49C17,389.21,5,409.51-3.31,429.79c-13.48,33-12.83,55.48-12.63,59V609.65h9l237.41.33H241.7l0-9,.15-59.88h816.26l.15,60,0,9H1325V488.49c0-1.1-1.16-27.46-17.16-64.1a272.58,272.58,0,0,0-37.13-61c-19.07-23.84-42.6-45.59-69.93-64.65l-.36-.25-.38-.22c-3.77-2.12-92.87-52-131-67.21l-37.74-15L656.72,34.64l-3.92-1.9Z" transform="translate(164.27 -32.74)"/><path class="cls-1" d="M1058.76,240c18.14,7.94,53.07,23.72,84.61,40.74l-1.26,71-83.36-77.37V240m-9-13.67v52l101,93.75,1.71-96.59c-46.85-25.77-102.71-49.12-102.71-49.12Z" transform="translate(164.27 -32.74)"/><path class="cls-1" d="M248.92,240V274.4l-83.36,77.37-1.26-71c31.55-17,66.48-32.8,84.61-40.74m9-13.67s-55.86,23.35-102.71,49.12l1.71,96.59,101-93.75v-52Z" transform="translate(164.27 -32.74)"/><path class="cls-7" d="M1195.86,314.35" transform="translate(164.27 -32.74)"/><path class="cls-1" d="M1195.44,304.15v167s-8,12.67-24-11.33-149-184.63-149-184.63-8.36,230.3-33,230.3h-32s-9.5-.75-46-39c-42.49-44.52-101-102.67-101-102.67s-5-6.19-2.25-21c4-21.25,14.58-112.67,14.58-112.67s.5-5.5-5.33-8.83c-7.72-4.41-85.83-37.75-85.83-37.75l-.2-105.08L725,92.38l-14.29-4.43-7,12.44-15.15-7-11.44,8.86-13.72-6.58-13.86,11.72-8.86-10-15.44,7.29-8.58-11.72-16.29,5.15-5.57-13L579,87.94l-5.55-10.72V183.6s-78.17,35.08-85.83,39.58-5.33,8.83-5.33,8.83,12.15,93.44,15.45,110.17c2.92,14.79-3.12,23.5-3.12,23.5s-58.44,58.22-101,102.67c-37.46,39.13-46,39-46,39h-32C291,507.35,283.35,277,283.35,277S149.66,437.63,133.66,461.63s-24,11.33-24,11.33l-.58-167C-18.26,400.6-9,493.35-9,493.35v109.5H237.44v-74h824v74h9.33l245.33.33V491.84S1322.78,398.81,1195.44,304.15ZM76.29,588.81H.62v-16H68.29l7-15.33-7-15.33H.62v-16H76.29L91,557.47Zm39.67,0L98.29,559.14l15-33,18,31.33Zm112-46.67H160.29l-7,15.33,7,15.33H228v16H152.29l-14.67-31.33,14.67-31.33H228ZM596.49,203.52s1-10.72,30.49-8.15c0,0-.09-8.69-11-8.86,0,0,9.66-4.25,21.27,3.72,0,0,3.72-8.51-4-13,0,0,6.65-1.77,13.74,9.57h1.6a21.72,21.72,0,0,1,1.89-6.13,5.48,5.48,0,0,0,.77-2.71v-.23s.83-9.34,2.6-9.34,2.6,9.34,2.6,9.34v.23a5.49,5.49,0,0,0,.77,2.71,21.72,21.72,0,0,1,1.89,6.13h1.6c7.09-11.34,13.74-9.57,13.74-9.57-7.71,4.52-4,13-4,13,11.61-8,21.27-3.72,21.27-3.72-10.9.18-11,8.86-11,8.86,29.51-2.57,30.49,8.15,30.49,8.15-18.61-4.08-18.88,1.33-18.88,1.33,24.82,3.37,19.5,20.47,19.5,20.47-6-6.2-12.85-4.61-12.85-4.61,15.86,18.43,7,30.13,7,30.13a26.54,26.54,0,0,0-6.6-9.48c-1.68-1.73-1.75.44-1.75.44,1,28-8.74,27.54-8.74,27.54.77-5.14-.53-7.68-1.77-10.93s-2.84-.71-2.84-.71c.35,14.65-7,18.14-7,18.14.59-5.79-1.95-8-5.2-12s-7.27,2.66-7.27,2.66a55.24,55.24,0,0,1-2.66,15.3c-.35,1.06.87,2.6.87,2.6.81,2.6.92,13.32.92,13.32l.09,1.51c.09,1.51,1,1.86,1,1.86a8.39,8.39,0,0,1,0,6.12c-3,2.48-2.13,5.91-.47,8.15s.62,18.35.62,18.35h3.37c2.66,0,3.9,3.19,3.9,3.19l-1.15,19.14h-35l-1.15-19.14s1.24-3.19,3.9-3.19h3.37s-1-16.1.62-18.35,2.48-5.67-.47-8.15a8.39,8.39,0,0,1,0-6.12s.87-.35,1-1.86l.09-1.51s.11-10.72.92-13.32c0,0,1.22-1.54.87-2.6a55.24,55.24,0,0,1-2.66-15.3s-4-6.68-7.27-2.66-5.79,6.2-5.2,12c0,0-7.33-3.49-7-18.14,0,0-1.6-2.54-2.84.71s-2.54,5.79-1.77,10.93c0,0-9.71.47-8.74-27.54,0,0-.07-2.17-1.75-.44a26.54,26.54,0,0,0-6.6,9.48s-8.82-11.7,7-30.13c0,0-6.82-1.6-12.85,4.61,0,0-5.32-17.11,19.5-20.47C615.37,204.85,615.1,199.45,596.49,203.52Zm69.9,196.16c8.1,6.52,16.47,13.84,25.12,22,0,0,1.48,1.62,2.08-.18s6.2-10.64,14.27-4.15-.93,16.64-.93,16.64a1.42,1.42,0,0,0-.11,2.22c1.21,1.2,21.56,23.37,22.11,21.87,0,0,.1-.69.33-1.79,1-4.65,4.52-16.53,13.94-12.64,11.63,4.81,7.68,16.34,2.41,24.88s-16.79,10.94-23.81,4.81-26.89-25.6-26.89-25.6a.8.8,0,0,0-1.35.2c-.55,1-7.9,11.62-15.29,2.8s2.56-16,2.56-16a.44.44,0,0,0,0-.72,267,267,0,0,0-28.31-24.45,267,267,0,0,0-28.31,24.45.44.44,0,0,0,0,.72s10,7.21,2.56,16-14.74-1.8-15.29-2.8a.8.8,0,0,0-1.35-.2s-19.86,19.47-26.89,25.6-18.55,3.73-23.81-4.81-9.22-20.07,2.41-24.88c9.42-3.89,12.94,8,13.94,12.64.23,1.09.33,1.79.33,1.79.55,1.5,20.91-20.67,22.11-21.87a1.42,1.42,0,0,0-.11-2.22s-9-10.15-.93-16.64,13.66,2.34,14.27,4.15,2.08.18,2.08.18c8.64-8.21,17-15.52,25.12-22-31.12-21.08-76.67-43.66-127-41.57,0,0,52.05-33.24,140.87,31,88.82-64.24,140.87-31,140.87-31C743.06,356,697.51,378.61,666.39,399.68Zm486.46,189.12h-75.67v-16h67.67l7-15.33-7-15.33h-67.67v-16h75.67l14.67,31.33Zm39.67,0-17.67-29.67,15-33,18,31.33Zm112-46.67h-67.67l-7,15.33,7,15.33h67.67v16h-75.67l-14.67-31.33,14.67-31.33h75.67Z" transform="translate(164.27 -32.74)"/></svg>